<svg xmlns="http://www.w3.org/2000/svg" viewBox="0 0 512 512" role="img" aria-label="StreamNova icon"><defs><linearGradient id="g" x1="0" y1="0" x2="1" y2="1"><stop stop-color="#ff3944"/><stop offset="1" stop-color="#8f0008"/></linearGradient></defs><rect width="512" height="512" rx="120" fill="#08090c"/><rect x="82" y="70" width="348" height="372" rx="86" fill="url(#g)"/><path d="M344 158c-31-26-76-42-119-42-65 0-112 34-112 86 0 47 33 70 105 88 55 14 72 25 72 46 0 23-22 37-57 37-40 0-79-16-111-44l-43 54c40 36 94 55 151 55 74 0 124-37 124-94 0-49-31-73-108-93-52-13-69-24-69-43 0-21 20-34 51-34 31 0 63 12 88 32z" fill="#fff"/></svg>