<svg xmlns="http://www.w3.org/2000/svg" viewBox="0 0 1600 900"><defs><linearGradient id="g" x1="0" y1="0" x2="1" y2="1"><stop stop-color="#0b4d3f"/><stop offset="1" stop-color="#7fbf4d"/></linearGradient><radialGradient id="s"><stop stop-color="#fff4a8"/><stop offset="1" stop-color="#f5a623"/></radialGradient></defs><rect width="1600" height="900" fill="url(#g)"/><circle cx="1280" cy="180" r="110" fill="url(#s)" opacity=".95"/><path d="M0 710Q260 560 520 700T1050 690T1600 610V900H0Z" fill="#133e2f"/><path d="M0 780Q320 650 620 770T1180 730T1600 700V900H0Z" fill="#0a261f"/><g transform="translate(470 165)" fill="#efe8dc"><ellipse cx="300" cy="410" rx="250" ry="235"/><ellipse cx="205" cy="120" rx="72" ry="195" transform="rotate(-18 205 120)"/><ellipse cx="392" cy="105" rx="72" ry="205" transform="rotate(17 392 105)"/><ellipse cx="300" cy="300" rx="180" ry="160" fill="#fff8ef"/><circle cx="240" cy="280" r="18" fill="#18191c"/><circle cx="360" cy="280" r="18" fill="#18191c"/><path d="M270 345Q300 375 330 345" fill="none" stroke="#6e544a" stroke-width="12" stroke-linecap="round"/><ellipse cx="300" cy="330" rx="24" ry="18" fill="#d68c89"/></g><text x="96" y="116" fill="#fff" font-family="Arial, sans-serif" font-size="38" font-weight="700" letter-spacing="8">BLENDER OPEN MOVIE</text><text x="94" y="770" fill="#fff" font-family="Arial, sans-serif" font-size="110" font-weight="800">BIG BUCK BUNNY</text><text x="100" y="830" fill="#d8f0df" font-family="Arial, sans-serif" font-size="32">FULL OPEN MOVIE • PLAYABLE NOW</text></svg>