<svg xmlns="http://www.w3.org/2000/svg" viewBox="0 0 1600 900" role="img" aria-label="Coffee Run open movie artwork"><defs><linearGradient id="g" x1="0" y1="0" x2="1" y2="1"><stop stop-color="#30150d"/><stop offset=".5" stop-color="#9a4d20"/><stop offset="1" stop-color="#f5c76b"/></linearGradient></defs><rect width="1600" height="900" fill="url(#g)"/><circle cx="1230" cy="300" r="220" fill="#fff1bd" opacity=".22"/><path d="M980 360h330v260c0 70-57 127-127 127h-76c-70 0-127-57-127-127z" fill="#24120c" opacity=".82"/><path d="M1310 430h70c70 0 70 150 0 150h-70" fill="none" stroke="#24120c" stroke-width="42"/><path d="M1045 305c-65-85 65-95 0-185M1145 305c-65-85 65-95 0-185M1245 305c-65-85 65-95 0-185" fill="none" stroke="#fff4d2" stroke-width="18" stroke-linecap="round" opacity=".65"/><path d="M0 780c330-120 650-90 930 10 270-110 480-105 670-30v140H0z" fill="#1b0c08"/><text x="95" y="175" fill="#fff" font-family="Arial,sans-serif" font-size="110" font-weight="800">COFFEE RUN</text><text x="105" y="240" fill="#ffedbd" font-family="Arial,sans-serif" font-size="34">BLENDER OPEN MOVIE</text></svg>