<svg xmlns="http://www.w3.org/2000/svg" viewBox="0 0 1600 900"><defs><linearGradient id="g" x1="0" y1="0" x2="1" y2="1"><stop stop-color="#141522"/><stop offset=".55" stop-color="#3a3254"/><stop offset="1" stop-color="#8d4f6f"/></linearGradient><filter id="b"><feGaussianBlur stdDeviation="18"/></filter></defs><rect width="1600" height="900" fill="url(#g)"/><g opacity=".25" stroke="#f3c8ff" fill="none"><circle cx="1250" cy="250" r="165" stroke-width="20"/><circle cx="1250" cy="250" r="105" stroke-width="10"/><path d="M1250 45V455M1045 250H1455" stroke-width="8"/></g><g transform="translate(320 155)"><path d="M210 560c-88-44-140-128-140-235 0-150 104-270 255-270 138 0 250 110 250 247 0 50-16 102-43 144 76 16 137 76 137 151H210Z" fill="#151827" stroke="#d7c8e9" stroke-width="9"/><circle cx="284" cy="250" r="58" fill="#efc9a4"/><path d="M238 210q46-66 95 0v-60q-47-49-95 0Z" fill="#303348"/><path d="M255 275q30 24 60 0" fill="none" stroke="#8f4e54" stroke-width="8" stroke-linecap="round"/><path d="M430 327q130-82 205-8t-42 150" fill="none" stroke="#b5a9c7" stroke-width="30" stroke-linecap="round"/><circle cx="658" cy="314" r="76" fill="#33384d" stroke="#d7c8e9" stroke-width="8"/><circle cx="635" cy="295" r="12" fill="#f5c85c"/><circle cx="685" cy="295" r="12" fill="#f5c85c"/></g><g fill="#eecbff" opacity=".35" filter="url(#b)"><circle cx="170" cy="220" r="55"/><circle cx="1450" cy="690" r="90"/><circle cx="980" cy="110" r="45"/></g><text x="92" y="118" fill="#f5dafa" font-family="Arial, sans-serif" font-size="38" font-weight="700" letter-spacing="8">BLENDER OPEN MOVIE</text><text x="94" y="770" fill="#fff" font-family="Arial, sans-serif" font-size="106" font-weight="800">ELEPHANTS DREAM</text><text x="100" y="830" fill="#dfcfe9" font-family="Arial, sans-serif" font-size="32">FULL OPEN MOVIE • PLAYABLE NOW</text></svg>