<svg xmlns="http://www.w3.org/2000/svg" viewBox="0 0 1600 900"><defs><linearGradient id="g" x1="0" y1="0" x2="1" y2="1"><stop stop-color="#14213d"/><stop offset=".55" stop-color="#4b275f"/><stop offset="1" stop-color="#d97950"/></linearGradient><radialGradient id="r"><stop stop-color="#ffd79c"/><stop offset="1" stop-color="#ff6f4d" stop-opacity="0"/></radialGradient></defs><rect width="1600" height="900" fill="url(#g)"/><circle cx="1250" cy="225" r="260" fill="url(#r)"/><path d="M0 650 230 430l155 150 190-260 220 280 245-340 250 300 310-220v560H0Z" fill="#10152d" opacity=".9"/><path d="M0 730 300 520l180 185 245-270 210 260 225-320 300 290 140-115v350H0Z" fill="#080b19"/><g transform="translate(650 145)"><path d="M210 570q-130-195-45-350 90-160 255-107 100 32 130 139-64-40-124-19 84 32 122 113-73-27-136 10 65 38 82 105-69-20-125 16 28 49 30 93Z" fill="#0b0e18"/><path d="M210 570q40-230 150-356" stroke="#f6c9b1" stroke-width="20" fill="none" stroke-linecap="round"/><circle cx="372" cy="197" r="67" fill="#f0b899"/><path d="M317 170q55-105 120-10l20-82q-104-70-160 31Z" fill="#351e34"/><path d="M345 208q28 18 55 0" stroke="#8e3b43" stroke-width="7" fill="none" stroke-linecap="round"/><path d="M470 190q110-115 190-20 60 75-5 146-44-83-132-68 45 28 65 74-92-13-138-88Z" fill="#dd7e4a" stroke="#ffd09d" stroke-width="8"/><circle cx="585" cy="188" r="10" fill="#120b0c"/></g><text x="94" y="116" fill="#ffe5cf" font-family="Arial, sans-serif" font-size="38" font-weight="700" letter-spacing="8">BLENDER OPEN MOVIE</text><text x="94" y="770" fill="#fff" font-family="Arial, sans-serif" font-size="124" font-weight="800">SINTEL</text><text x="100" y="830" fill="#f0d0c3" font-family="Arial, sans-serif" font-size="32">FULL OPEN MOVIE • PLAYABLE NOW</text></svg>