<svg xmlns="http://www.w3.org/2000/svg" viewBox="0 0 1600 900"><defs><linearGradient id="g" x1="0" y1="0" x2="1" y2="1"><stop stop-color="#07131f"/><stop offset=".55" stop-color="#12384b"/><stop offset="1" stop-color="#8b2f2f"/></linearGradient><linearGradient id="m" x1="0" y1="0" x2="0" y2="1"><stop stop-color="#b9d5df"/><stop offset="1" stop-color="#35505c"/></linearGradient></defs><rect width="1600" height="900" fill="url(#g)"/><g opacity=".3" stroke="#7ed7e6" fill="none"><path d="M0 250h1600M0 430h1600M0 610h1600"/><path d="M220 0v900M520 0v900M820 0v900M1120 0v900M1420 0v900"/></g><path d="M0 720 210 610l170 65 180-155 210 160 170-225 220 210 190-120 250 120v235H0Z" fill="#071016"/><g transform="translate(770 105)"><path d="M190 590 80 390l75-210 180-90 190 80 70 230-105 190Z" fill="url(#m)" stroke="#d7edf3" stroke-width="10"/><path d="m155 180 80 80-45 95 105 70 105-70-45-95 80-80" fill="none" stroke="#203944" stroke-width="32" stroke-linejoin="round"/><circle cx="245" cy="320" r="22" fill="#e84a4a"/><circle cx="355" cy="320" r="22" fill="#e84a4a"/><path d="M235 455h130" stroke="#15242c" stroke-width="24" stroke-linecap="round"/><path d="M100 390 10 500M500 390l95 110" stroke="#9bb9c4" stroke-width="42" stroke-linecap="round"/></g><circle cx="1160" cy="170" r="90" fill="#ff5a47" opacity=".24"/><text x="94" y="116" fill="#ccecf2" font-family="Arial, sans-serif" font-size="38" font-weight="700" letter-spacing="8">BLENDER OPEN MOVIE</text><text x="94" y="770" fill="#fff" font-family="Arial, sans-serif" font-size="106" font-weight="800">TEARS OF STEEL</text><text x="100" y="830" fill="#c8dce2" font-family="Arial, sans-serif" font-size="32">FULL OPEN MOVIE • PLAYABLE NOW</text></svg>