<svg xmlns="http://www.w3.org/2000/svg" viewBox="0 0 1600 900" role="img" aria-label="Animation official trailer artwork"><defs><linearGradient id="g" x1="0" y1="0" x2="1" y2="1"><stop stop-color="#0f172a"/><stop offset=".45" stop-color="#1d4ed8"/><stop offset="1" stop-color="#ec4899"/></linearGradient></defs><rect width="1600" height="900" fill="url(#g)"/><circle cx="1220" cy="350" r="280" fill="#fef08a" opacity=".2"/><path d="M950 640l120-290 95 150 120-250 170 390z" fill="#0b1022" opacity=".7"/><g fill="#fff" opacity=".72"><path d="M1160 210l20 42 46 7-33 32 8 46-41-22-41 22 8-46-33-32 46-7z"/><circle cx="1370" cy="230" r="22"/><circle cx="1050" cy="350" r="16"/></g><path d="M0 770c280-120 560-85 830 30 270-130 510-120 770-35v135H0z" fill="#080b18" opacity=".88"/><text x="90" y="160" fill="#fff" font-family="Arial,sans-serif" font-size="96" font-weight="800">OFFICIAL</text><text x="95" y="248" fill="#dbeafe" font-family="Arial,sans-serif" font-size="82" font-weight="700">TRAILER</text><text x="100" y="310" fill="#fbcfe8" font-family="Arial,sans-serif" font-size="30">ANIMATION COLLECTION</text></svg>